HIERARCHY
ROOT Hips
{
	OFFSET 0.00000 0.00000 0.00000
	CHANNELS 6 Xposition Yposition Zposition Zrotation Yrotation Xrotation 
	JOINT RightUpLegDummy
	{
		OFFSET 0 0 0
		CHANNELS 3 Zrotation Yrotation Xrotation
		JOINT RightUpLeg
		{
			OFFSET -3.52197 -3.41223 0.04002
			CHANNELS 3 Zrotation Yrotation Xrotation
			JOINT RightLeg
			{
				OFFSET 0.00006 -17.42390 1.60435
				CHANNELS 3 Zrotation Yrotation Xrotation
				JOINT RightFoot
				{
					OFFSET 0.06153 -16.50078 -1.63901
					CHANNELS 3 Zrotation Yrotation Xrotation
					JOINT RightToes
					{
						OFFSET 0.00298 -1.73825 3.34613
						CHANNELS 3 Zrotation Yrotation Xrotation
						End Site
						{
							OFFSET 0.00480 -0.05416 3.85043
						}
					}
				}
			}
		}
	}
	JOINT SpineDummy
	{
		OFFSET 0 0 0
		CHANNELS 3 Zrotation Yrotation Xrotation
		JOINT Spine
		{
			OFFSET 0.00000 4.68130 0.00000
			CHANNELS 3 Zrotation Yrotation Xrotation
			JOINT Spine1
			{
				OFFSET -0.00000 10.10138 0.05002
				CHANNELS 3 Zrotation Yrotation Xrotation
				JOINT HEadDummy
				{
					OFFSET 0 0 0
					CHANNELS 3 Zrotation Yrotation Xrotation
					JOINT Head
					{
						OFFSET -0.00000 3.43865 0.00438
						CHANNELS 3 Zrotation Yrotation Xrotation
						End Site
						{
							OFFSET -0.11417 5.02924 0.98962
						}
					}
				}
				JOINT LeftShoulder1Dummy
				{
					OFFSET 0 0 0
					CHANNELS 3 Zrotation Yrotation Xrotation
					JOINT LeftShoulder1
					{
						OFFSET 3.53937 -0.14262 -0.08662
						CHANNELS 3 Zrotation Yrotation Xrotation
						JOINT LeftArm
						{
							OFFSET 4.04833 -0.00133 0.12681
							CHANNELS 3 Zrotation Yrotation Xrotation
							JOINT LeftForeArm
							{
								OFFSET 10.33880 -0.01036 -0.55515
								CHANNELS 3 Zrotation Yrotation Xrotation
								JOINT LeftHand
								{
									OFFSET 8.69677 0.07543 0.40060
									CHANNELS 3 Zrotation Yrotation Xrotation
									End Site
									{
										OFFSET 5.28377 -0.21905 0.59205
									}
								}
							}
						}
					}
				}
				JOINT RightShoulderDummy
				{
					OFFSET 0 0 0
					CHANNELS 3 Zrotation Yrotation Xrotation
					JOINT RightShoulder
					{
						OFFSET -3.53937 -0.14262 -0.08660
						CHANNELS 3 Zrotation Yrotation Xrotation
						JOINT RightArm
						{
							OFFSET -4.04833 -0.00133 0.12683
							CHANNELS 3 Zrotation Yrotation Xrotation
							JOINT RightForeArm
							{
								OFFSET -10.37987 -0.01039 -0.55511
								CHANNELS 3 Zrotation Yrotation Xrotation
								JOINT RightHand
								{
									OFFSET -8.67398 0.07538 0.40058
									CHANNELS 3 Zrotation Yrotation Xrotation
									End Site
									{
										OFFSET -5.24810 -0.21916 0.59204
									}
								}
							}
						}
					}
				}
			}
		}
	}
	JOINT LeftUpLegDummy
	{
		OFFSET 0 0 0
		CHANNELS 3 Zrotation Yrotation Xrotation
		JOINT LeftUpLeg
		{
			OFFSET 3.52197 -3.41223 0.04002
			CHANNELS 3 Zrotation Yrotation Xrotation
			JOINT LeftLeg
			{
				OFFSET -0.00012 -17.42399 1.60337
				CHANNELS 3 Zrotation Yrotation Xrotation
				JOINT LeftFoot
				{
					OFFSET -0.09972 -16.50070 -1.63802
					CHANNELS 3 Zrotation Yrotation Xrotation
					JOINT LeftToes
					{
						OFFSET -0.01575 -1.73823 3.34611
						CHANNELS 3 Zrotation Yrotation Xrotation
						End Site
						{
							OFFSET 0.03150 -0.01868 3.85031
						}
					}
				}
			}
		}
	}
}
MOTION
Frames: 9
Frame Time: 0.033333
-1.4054 40.3070 -82.4795 -1.6060 -4.4248 -0.5048 0.0000 0.0000 0.0000 2.6199 -0.7403 -0.5220 -0.9629 -2.8023 3.6360 -2.7113 0.2005 -2.4286 0.0000 -0.0000 0.0000 0.0000 0.0000 0.0000 2.7073 0.3850 0.2355 0.3311 0.1831 2.0349 -0.0000 0.0000 -0.0000 -3.3378 10.8199 -11.5672 -0.0000 0.0000 -0.0000 -32.3756 -2.1653 2.1770 -38.6694 -9.3147 -27.7541 -7.0949 5.6042 27.7034 13.2588 -2.5357 -0.8844 -0.0000 0.0000 -0.0000 33.1212 4.8875 3.2831 36.5125 6.2925 -24.2603 8.1371 -1.0932 15.7552 -10.4332 0.6855 -0.5393 0.0000 0.0000 0.0000 1.8992 2.2571 0.9928 2.5168 11.6260 6.3500 1.2311 -0.0202 -6.0353 0.0000 0.0000 -0.0000
-1.4004 40.3086 -82.4868 -1.5977 -4.3093 -0.5334 0.0000 0.0000 0.0000 2.6003 -0.7514 -0.4829 -0.9923 -2.9593 3.6272 -2.6051 0.1937 -2.4427 0.0000 -0.0000 0.0000 0.0000 0.0000 0.0000 2.7437 0.4031 0.2401 0.2566 0.2155 2.0793 -0.0000 0.0000 -0.0000 -3.3751 11.3847 -11.4610 -0.0000 0.0000 -0.0000 -32.0762 -2.1305 2.1468 -38.0166 -9.3043 -28.0558 -7.0134 5.6133 27.1165 13.3645 -2.3889 -0.8759 -0.0000 0.0000 -0.0000 32.9188 4.8594 3.2551 35.6899 6.1887 -24.2610 8.1839 -0.8291 15.5290 -10.7699 0.6702 -0.5556 0.0000 0.0000 0.0000 1.8891 2.2571 1.0075 2.4899 11.5248 6.3217 1.2454 -0.0211 -6.0107 0.0000 0.0000 -0.0000
-1.3924 40.3114 -82.4996 -1.5947 -3.9774 -0.6116 0.0000 0.0000 0.0000 2.5675 -0.7961 -0.3585 -1.0255 -3.3133 3.5745 -2.4523 0.1817 -2.4521 0.0000 -0.0000 0.0000 0.0000 0.0000 0.0000 2.8127 0.3878 0.3461 0.1416 0.2225 2.0501 -0.0000 0.0000 -0.0000 -3.6372 12.0976 -11.3103 -0.0000 0.0000 -0.0000 -31.6088 -2.0581 2.0933 -36.9054 -9.2864 -28.3927 -6.9693 5.6308 26.2526 12.9271 -2.5001 -0.8577 -0.0000 0.0000 -0.0000 32.5527 4.8070 3.2042 34.2191 5.8865 -23.8879 8.4187 -0.2645 15.1978 -11.0614 0.6550 -0.5696 0.0000 0.0000 0.0000 1.8974 2.2571 1.0341 2.4122 11.1928 6.2954 1.3029 -0.0248 -5.9739 0.0000 0.0000 -0.0000
-1.3857 40.3144 -82.5059 -1.5886 -3.5743 -0.6987 0.0000 0.0000 0.0000 2.5269 -0.8621 -0.2105 -1.0379 -3.6588 3.5098 -2.3771 0.1758 -2.4539 0.0000 -0.0000 0.0000 0.0000 0.0000 0.0000 2.9134 0.3564 0.5051 -0.0121 0.2207 1.9125 -0.0000 0.0000 -0.0000 -4.0652 12.5270 -11.1906 -0.0000 0.0000 -0.0000 -31.2850 -1.9991 2.0533 -35.9282 -9.2936 -28.4050 -7.0583 5.5332 25.9114 12.3994 -2.8448 -0.8561 -0.0000 0.0000 -0.0000 32.2417 4.7560 3.1589 32.8981 5.4494 -23.0701 8.8163 0.3894 15.0325 -11.1486 0.5986 -0.5691 0.0000 0.0000 0.0000 1.9086 2.2599 1.0778 2.3154 10.7854 6.2531 1.3660 -0.0289 -5.9367 0.0000 0.0000 -0.0000
-1.3791 40.3163 -82.5021 -1.5671 -3.2548 -0.7506 0.0000 0.0000 0.0000 2.4841 -0.9112 -0.1207 -1.0573 -3.8978 3.4932 -2.3696 0.1744 -2.4789 0.0000 -0.0000 0.0000 0.0000 0.0000 0.0000 3.0020 0.3716 0.5373 -0.1435 0.2595 1.8385 -0.0000 0.0000 -0.0000 -4.3831 12.9315 -10.9652 -0.0000 0.0000 -0.0000 -31.2037 -1.9920 2.0463 -35.3034 -9.3935 -28.1001 -7.2350 5.1543 26.2853 12.6413 -3.0214 -0.8913 -0.0000 0.0000 -0.0000 32.0442 4.7163 3.1276 32.0987 5.1254 -22.3477 9.1204 0.7605 15.3910 -11.2326 0.5975 -0.5734 0.0000 0.0000 0.0000 1.8888 2.2419 1.1256 2.2473 10.4926 6.1803 1.4018 -0.0312 -5.9046 0.0000 0.0000 -0.0000
-1.3705 40.3170 -82.4990 -1.5340 -2.9659 -0.7773 0.0000 0.0000 0.0000 2.4450 -0.9314 -0.0913 -1.1160 -4.1529 3.5373 -2.3432 0.1720 -2.5391 0.0000 -0.0000 0.0000 0.0000 0.0000 0.0000 2.9832 0.4210 0.4007 -0.1063 0.3004 1.9448 -0.0000 0.0000 -0.0000 -4.4544 13.4923 -10.5135 -0.0000 0.0000 -0.0000 -31.3143 -2.0209 2.0631 -34.9877 -9.6652 -27.6612 -7.4487 5.0783 26.6843 13.4775 -2.8734 -0.9362 -0.0000 0.0000 -0.0000 31.8668 4.6847 3.1011 31.7570 5.0683 -22.1404 9.1786 0.7053 16.1498 -11.3795 0.7100 -0.5912 0.0000 0.0000 0.0000 1.8409 2.1981 1.1421 2.2092 10.2602 6.1216 1.4406 -0.0337 -5.8768 0.0000 0.0000 -0.0000
-1.3623 40.3174 -82.5072 -1.4979 -2.5858 -0.8159 0.0000 0.0000 0.0000 2.4068 -0.9471 -0.0707 -1.2007 -4.5220 3.6071 -2.2733 0.1670 -2.6032 0.0000 -0.0000 0.0000 0.0000 0.0000 0.0000 2.8259 0.4312 0.2756 0.1263 0.2680 2.0910 -0.0000 0.0000 -0.0000 -4.3959 14.0033 -9.9948 -0.0000 0.0000 -0.0000 -31.5404 -2.0321 2.0797 -35.0022 -10.0910 -27.1945 -7.6753 5.1591 26.7298 13.8858 -2.7479 -0.9516 -0.0000 0.0000 -0.0000 31.6828 4.6604 3.0769 31.7752 5.1654 -22.2680 9.1014 0.4954 16.6645 -11.4301 0.8187 -0.6037 0.0000 0.0000 0.0000 1.7938 2.1481 1.1142 2.1655 9.9331 6.1175 1.5134 -0.0384 -5.8450 0.0000 0.0000 -0.0000
-1.3584 40.3175 -82.5217 -1.4682 -2.1741 -0.8606 0.0000 0.0000 0.0000 2.3746 -0.9684 -0.0462 -1.2730 -4.9006 3.6654 -2.2102 0.1624 -2.6389 0.0000 -0.0000 0.0000 0.0000 0.0000 0.0000 2.6452 0.3888 0.2998 0.3674 0.1844 2.0804 -0.0000 0.0000 -0.0000 -4.3468 14.3661 -9.6569 -0.0000 0.0000 -0.0000 -31.7893 -1.9997 2.0812 -35.5077 -10.4884 -26.7485 -7.8587 5.3290 26.8182 13.4210 -2.9832 -0.9439 -0.0000 0.0000 -0.0000 31.6209 4.6546 3.0697 32.2058 5.2723 -22.4576 9.0072 0.3371 16.6802 -11.2950 0.8540 -0.5997 0.0000 0.0000 0.0000 1.7673 2.1130 1.0596 2.1104 9.5532 6.1533 1.5845 -0.0429 -5.8166 0.0000 0.0000 -0.0000
-1.3566 40.3174 -82.5301 -1.4630 -1.8952 -0.8661 0.0000 0.0000 0.0000 2.3693 -0.9739 -0.0487 -1.3166 -5.1546 3.6924 -2.1844 0.1602 -2.6518 0.0000 -0.0000 0.0000 0.0000 0.0000 0.0000 2.6012 0.3593 0.3662 0.4123 0.1487 1.9526 -0.0000 0.0000 -0.0000 -4.3044 14.7096 -9.4923 -0.0000 0.0000 -0.0000 -31.9622 -1.9619 2.0764 -36.5625 -10.6243 -26.4540 -7.9076 5.4244 27.1831 12.6882 -3.3737 -0.9307 -0.0000 0.0000 -0.0000 31.8192 4.6849 3.0973 33.0154 5.3886 -22.7130 8.8737 0.1504 16.6761 -11.0956 0.8988 -0.5928 0.0000 0.0000 0.0000 1.7661 2.0991 0.9870 2.0742 9.2924 6.1999 1.6060 -0.0443 -5.8166 0.0000 0.0000 -0.0000
